<svg xmlns="http://www.w3.org/2000/svg" viewBox="0 0 24 24" id="CyLab-Logo" height="24" width="24">
  <desc>CyLab Academy Logo</desc>
  <g transform="translate(2.9423 1.5000) scale(0.116498) translate(-50.2500 -44.5000)">
    <path fill-rule="evenodd" clip-rule="evenodd" fill="#F07025" d="M128 44.504c-25.504 3 -51.248 12 -70.752 25l-7 4.752v49C50.248 173 78 206 128 224.752 178 206 205.752 173 205.752 123.248v-49l-7 -4.752c-19.504 -13 -45.248 -22 -70.752 -25Z M 152.624,89.128 A 40.56,40.56 0.0 0,0 123.872,80.752 C 100.12,83.0 82.248,100.504 82.248,128.0 C 82.248,155.496 100.128,173.0 123.872,175.248 C 134.624,176.248 145.12,173.0 153.752,166.248 L 141.504,151.496 C 136.0,155.496 129.752,157.248 123.0,156.496 C 109.248,154.992 99.752,144.248 99.752,127.992 C 99.752,111.736 109.256,100.992 123.0,99.488 C 129.752,98.736 136.0,100.488 141.504,104.488 Z"/>
  </g>
</svg>
